<svg width="47" height="41" viewBox="0 0 47 41" fill="none" xmlns="http://www.w3.org/2000/svg">
<g clip-path="url(#clip0_14_64)">
<path d="M32.8677 0.0102246C34.1312 0.154776 34.8685 1.52167 34.2472 2.52783C31.219 5.47338 28.0238 8.29721 24.8941 11.1616C23.3807 12.5463 21.8695 13.943 20.3504 15.327C17.7413 17.7045 15.7844 20.2468 11.7159 20.4484C3.23397 20.8687 -0.80575 11.218 5.75745 6.43452C9.70861 3.55491 15.05 4.45582 18.2092 7.85278C19.7932 9.55569 17.4094 11.691 15.5497 10.2677C14.9572 9.81373 14.5353 9.24503 13.8585 8.84498C10.8519 7.07106 6.7762 8.72516 6.2967 11.9452C5.67033 16.1543 11.0852 18.6935 14.5223 15.8728L31.345 0.437539C31.6178 0.229588 31.9965 0.0482645 32.3537 0.0102246C32.476 -0.00308936 32.7468 -0.00372335 32.8677 0.0102246Z" fill="#804B8B"/>
<path d="M37.0161 4.69295C40.3215 4.47232 42.8817 6.46624 44.0747 9.12016C46.8451 15.2839 41.1019 21.601 33.9304 20.2785C31.3759 19.8075 30.0793 18.6289 28.3003 17.061C27.7142 16.5449 25.7501 14.9098 25.4629 14.3823C24.5651 12.7346 26.748 11.1604 28.3233 12.2908C29.6488 13.3832 30.872 14.7038 32.201 15.7765C36.0802 18.9078 41.9846 15.8989 40.904 11.2599C40.4979 9.51577 38.8283 7.49078 36.6086 8.21671C35.2328 8.66622 34.0794 10.8174 32.754 10.9442C31.2831 11.0849 30.2103 9.87462 30.7453 8.61359C30.9476 8.13556 32.7028 6.5867 33.209 6.17968C34.2637 5.33075 35.6 4.78742 37.0161 4.69295Z" fill="#804B8B"/>
<path d="M44.5694 31.5022V29.9254C44.5694 29.902 44.4542 29.6648 44.4225 29.6306C44.2073 29.3986 43.591 29.3986 43.3044 29.4765C43.1201 29.9096 42.429 33.0542 42.2375 33.1785C42.1899 33.2095 42.1619 33.2102 42.1079 33.2165C41.7875 33.2539 40.529 33.2577 40.2223 33.2121C40.1006 33.1943 39.966 33.0954 39.9933 32.9711L41.1222 29.635L41.1417 29.4385H40.2201C40.1726 29.4385 40.0826 29.2794 40.0725 29.2223C40.0315 28.9858 40.0372 28.187 40.0689 27.9391C40.0876 27.7952 40.1575 27.6995 40.3144 27.6563C41.6989 27.7026 43.1741 27.5657 44.5485 27.6481C47.9007 27.8497 46.7704 30.8339 46.9727 32.9242L46.8423 33.1949H43.4988C43.411 33.136 43.3815 33.0574 43.3692 32.9623C43.3491 32.8076 43.3505 31.7418 43.3923 31.6581C43.4024 31.6385 43.5507 31.5015 43.5629 31.5015H44.5701L44.5694 31.5022Z" fill="#804B8B"/>
<path d="M18.7363 27.8172C19.0631 27.5319 20.534 27.6302 20.9624 27.7741C21.8724 28.079 22.0625 28.9413 22.11 29.7293C22.2677 32.3382 21.2504 33.5061 18.2726 33.2924C14.9629 33.0547 15.8291 30.0444 15.7203 27.9396C15.7275 27.7899 15.8391 27.6739 16.0026 27.6505C16.179 27.6257 17.6326 27.6295 17.7348 27.6682C17.8003 27.6929 17.9184 27.8242 17.9098 27.899C17.9731 28.8436 17.8183 29.8897 17.9062 30.8217C17.9292 31.0671 17.9832 31.2192 18.2208 31.353C18.714 31.6313 19.6845 31.5762 19.7529 30.939C19.7831 30.6588 19.7831 29.8213 19.6463 29.5911C19.3965 29.1708 18.7104 29.7769 18.6024 29.3325C18.5584 29.1518 18.5649 28.2984 18.5923 28.0943C18.6038 28.0055 18.6679 27.8762 18.7363 27.8166V27.8172Z" fill="#804B8B"/>
<path d="M2.26212 27.6479C3.46086 27.6016 4.68408 27.7272 5.19742 28.8557C6.01746 30.6575 4.7496 32.5291 2.84169 33.1377C2.67106 33.1922 1.90718 33.3983 1.79271 33.352C1.77111 33.3431 1.67319 33.2569 1.66023 33.2366C1.51552 33.0033 1.67751 31.9027 1.62855 31.5686C1.90286 31.2027 2.41979 31.2541 2.70994 30.8769C2.96697 30.5427 3.098 29.619 2.53067 29.4878C1.85606 29.3312 0.950347 29.5233 0.267101 29.4409C0.100789 29.4212 0.0503914 29.3299 0.0323923 29.1866C0.111588 28.3612 -0.0698427 27.3835 0.0323923 26.5765C0.0503914 26.4332 0.100789 26.3425 0.267101 26.3222C0.586045 26.2842 1.71063 26.2836 2.02885 26.3222C2.09869 26.3305 2.26212 26.4116 2.26212 26.4604V27.6479Z" fill="#804B8B"/>
<path d="M23.5565 15.436C25.2945 15.2452 26.3896 16.9627 25.3025 18.1895C24.9778 18.5559 23.4752 19.9583 23.0914 20.191C21.298 21.2764 19.1943 19.2311 20.6292 17.6436C20.9567 17.2816 22.6191 15.7606 22.9993 15.592C23.1642 15.5191 23.3744 15.4563 23.5565 15.436Z" fill="#804B8B"/>
<path d="M34.1321 29.3611C34.0658 29.344 33.9542 29.1772 33.9413 29.1056C33.9017 28.8773 33.9125 28.2212 33.937 27.9771C33.9521 27.8262 33.9859 27.7285 34.1508 27.6658L39.2957 27.6689C39.3216 27.6791 39.4346 27.7818 39.4454 27.8053C39.4886 27.9004 39.4893 29.0434 39.4562 29.1766C39.3893 29.4479 39.0077 29.3357 38.7888 29.3681C38.3309 30.5169 38.6923 31.8502 38.5455 33.0592C38.4655 33.1562 38.3784 33.2025 38.2474 33.2164C37.8478 33.2595 36.8507 33.2538 36.4432 33.2177C36.3222 33.2069 36.2589 33.1993 36.1897 33.0979C36.2034 32.1304 36.0947 31.0843 36.1653 30.1193C36.1782 29.9431 36.225 29.7225 36.2639 29.5475C36.2718 29.5126 36.3841 29.3617 36.274 29.3617H34.1306L34.1321 29.3611Z" fill="#804B8B"/>
<path d="M24.7107 27.6563C25.0951 27.5796 26.471 27.6253 26.9325 27.6462C30.7828 27.8212 29.5697 30.392 29.7821 32.9229C29.7677 33.0707 29.6726 33.1956 29.5049 33.2159C29.16 33.2571 27.9599 33.2571 27.6143 33.2159C27.4804 33.2 27.3875 33.1303 27.3788 33.0016C27.3335 32.0956 27.4472 31.1332 27.3832 30.2342C27.3515 29.7885 27.2824 29.4315 26.7136 29.3631C26.3147 29.3155 24.8251 29.4379 24.6142 29.3231C24.5904 29.3098 24.5429 29.2648 24.5321 29.242C24.4925 29.1602 24.4853 28.0082 24.5076 27.8592C24.5242 27.7464 24.5854 27.6804 24.7121 27.6557L24.7107 27.6563Z" fill="#804B8B"/>
<path d="M30.9262 27.6563L32.9737 27.6487L33.2012 27.8313L33.212 32.9635C33.2099 33.0751 33.1033 33.1518 33.0083 33.2063L30.9175 33.2133L30.7001 33.0218L30.6799 27.9391C30.6835 27.804 30.7829 27.6918 30.9254 27.6563H30.9262Z" fill="#804B8B"/>
<path d="M12.5375 27.6561C13.1574 27.6974 13.9465 27.5731 14.5455 27.646C14.6722 27.6612 14.7212 27.7189 14.7997 27.8045V30.7222L14.6499 30.8585H12.4655C12.3359 30.7735 12.3057 30.6892 12.2913 30.5497C12.2071 29.7217 12.359 28.7796 12.2928 27.9389C12.2964 27.8039 12.3957 27.6916 12.5383 27.6561H12.5375Z" fill="#804B8B"/>
<path d="M30.7669 37.224L30.6172 39.9103H29.3313C29.2341 39.8532 29.2464 39.4145 29.286 39.3631L29.8396 39.3213L29.9102 39.2293C29.9246 38.5592 29.8576 37.8846 29.9959 37.2246C29.9764 37.2069 29.6827 37.2443 29.5956 37.2183C29.435 37.1695 29.4408 36.6883 29.5668 36.6211C29.6488 36.5767 31.2558 36.5856 31.4761 36.6008C32.0218 36.6376 32.5971 36.8379 32.816 37.3305C32.9902 37.723 33.0204 39.2928 32.9556 39.7378C32.9412 39.8361 32.9204 39.89 32.8023 39.9103C32.6842 39.9306 32.1752 39.9413 32.1176 39.8335C32.006 39.204 32.199 38.409 32.0859 37.7991C32.0485 37.5949 31.9045 37.4206 31.7065 37.3267C31.6698 37.3096 31.4466 37.2259 31.4322 37.2259H30.7677L30.7669 37.224Z" fill="#804B8B"/>
<path d="M7.12692 26.325H8.58412L8.6878 26.5335C8.49341 27.2772 8.48693 28.1312 8.2947 28.8647C8.24142 29.0689 8.14063 29.2255 7.90088 29.247C7.5085 29.2826 6.43071 29.2921 6.05273 29.247C5.81586 29.2185 5.84394 29.079 5.89146 28.9022C6.01817 28.4311 6.6287 27.0553 6.88285 26.6109C6.95053 26.4923 7.01172 26.4112 7.1262 26.3262L7.12692 26.325Z" fill="#804B8B"/>
<path d="M10.042 26.325H11.4992L11.6028 26.5335C11.4084 27.2772 11.402 28.1312 11.2097 28.8647C11.1565 29.0689 11.0557 29.2255 10.8159 29.247C10.4235 29.2826 9.34575 29.2921 8.96777 29.247C8.7309 29.2185 8.75898 29.079 8.8065 28.9022C8.93321 28.4311 9.54374 27.0553 9.79789 26.6109C9.86556 26.4923 9.92676 26.4112 10.0412 26.3262L10.042 26.325Z" fill="#804B8B"/>
<path d="M5.57253 39.2964C6.17226 39.1144 7.12909 39.5215 7.443 38.8342C7.58051 38.5324 7.58555 37.913 7.42284 37.6169C7.0967 37.0216 6.12762 37.3868 5.57253 37.2143C5.4955 37.1446 5.49334 36.7306 5.55813 36.6551C5.59773 36.6082 5.65173 36.6057 5.71004 36.5987C5.99155 36.5651 6.65536 36.5803 6.94982 36.6057C7.81882 36.6799 8.2832 37.1636 8.35015 37.9422C8.42935 38.8634 8.19464 39.7789 7.02974 39.8987C6.75831 39.9266 5.91523 39.9507 5.67117 39.9082C5.62653 39.9006 5.58837 39.8885 5.55885 39.8549C5.49334 39.7789 5.49694 39.3655 5.57325 39.2957L5.57253 39.2964Z" fill="#804B8B"/>
<path d="M43.2081 37.2151C43.1317 37.146 43.1281 36.732 43.1937 36.6559L43.306 36.6027C44.6091 36.699 46.3961 36.1392 46.5401 37.8282C46.6308 38.8857 46.062 39.6319 44.9446 39.9204C44.7891 39.9603 44.571 40.0624 44.5278 39.8506C44.5105 39.7657 44.5126 39.4385 44.5486 39.3656C44.6185 39.2249 45.2535 39.086 45.4882 38.7786C45.7229 38.4711 45.7949 37.6285 45.4421 37.385C45.0267 37.0991 43.4003 37.3895 43.2081 37.2145V37.2151Z" fill="#804B8B"/>
<path d="M15.207 37.2239H13.5568C13.4006 37.2239 13.4373 36.7002 13.4927 36.6013H16.472C16.6059 36.6013 16.6066 37.0559 16.5576 37.1466C16.482 37.2873 16.202 37.1859 16.0637 37.2429C15.9881 37.2848 15.9169 37.5929 15.9053 37.6829C15.8204 38.3283 15.9874 39.117 15.8953 39.7371C15.8873 39.7884 15.8405 39.9102 15.7858 39.9102H15.1429C15.0817 39.8759 15.0839 39.8328 15.0767 39.7757C15.0133 39.2831 15.0277 38.0982 15.0767 37.5923C15.0903 37.4509 15.1307 37.345 15.207 37.2239Z" fill="#804B8B"/>
<path d="M22.65 36.6071C23.6615 36.6534 25.2966 36.3009 25.6969 37.449C25.8322 37.8377 25.8581 39.3111 25.7962 39.7365C25.7883 39.791 25.7861 39.8373 25.7343 39.8747C25.6602 39.928 24.9927 39.9705 24.9459 39.805C24.874 39.1875 25.0129 38.4717 24.9373 37.8662C24.8149 36.881 23.3397 37.3368 22.6197 37.2069L22.5981 36.6375L22.65 36.6065V36.6071Z" fill="#804B8B"/>
<path d="M3.24778 37.9054C3.18731 37.466 2.87916 37.2593 2.41334 37.2226C2.11816 37.1991 1.10733 37.2815 0.933096 37.2048C0.806383 37.149 0.785504 36.657 0.963335 36.6088C1.77761 36.6532 3.15563 36.385 3.73736 37.0324C3.83383 37.1401 4.06278 37.5484 4.06278 37.6714V39.8511L3.99871 39.9094H3.31258L3.2485 39.8511C3.18803 39.2393 3.33058 38.5007 3.2485 37.9047L3.24778 37.9054Z" fill="#804B8B"/>
<path d="M20.2656 37.9054C20.2051 37.466 19.897 37.2593 19.4312 37.2226C19.136 37.1991 18.1252 37.2815 17.9509 37.2048C17.8242 37.149 17.8033 36.657 17.9812 36.6088C18.7954 36.6532 20.1734 36.385 20.7552 37.0324C20.8517 37.1401 21.0806 37.5484 21.0806 37.6714V39.8511L21.0165 39.9094H20.3304L20.2663 39.8511C20.2058 39.2393 20.3484 38.5007 20.2663 37.9047L20.2656 37.9054Z" fill="#804B8B"/>
<path d="M38.9824 36.6077C39.0969 36.5728 40.0372 36.5874 40.22 36.6001C40.8191 36.64 41.3785 36.8258 41.5887 37.3811C41.7356 37.7692 41.7615 39.3047 41.6989 39.7371C41.6909 39.7916 41.6888 39.8379 41.6369 39.8753C41.5628 39.9285 40.8954 39.971 40.8486 39.8056C40.7766 39.188 40.9155 38.4723 40.8399 37.8668C40.7975 37.5232 40.5361 37.286 40.1653 37.2341C39.9191 37.1992 39.076 37.2715 38.9536 37.2055C38.8312 37.1396 38.8226 36.6571 38.9824 36.6083V36.6077Z" fill="#804B8B"/>
<path d="M11.4776 37.8661C11.3487 36.9981 10.3328 37.3024 9.69639 37.2257C9.39041 37.189 9.46456 36.6507 9.62152 36.6088C9.77847 36.567 10.6878 36.586 10.898 36.6019C11.3127 36.6323 11.7807 36.775 12.0348 37.0881C12.1076 37.1775 12.2919 37.5408 12.2919 37.6328V39.8517L12.2278 39.9101H11.5417L11.4776 39.8517V37.8667V37.8661Z" fill="#804B8B"/>
<path d="M43.1979 40.9999C43.0986 40.0039 43.1842 38.9851 43.1533 37.9814C43.1619 37.8261 43.2462 37.8185 43.3887 37.8058C43.5917 37.7881 44.0079 37.7469 44.01 37.9859C43.9316 38.869 44.1245 39.9247 44.0136 40.7869C44.0021 40.8744 43.982 40.9409 43.9056 40.9999H43.1986H43.1979Z" fill="#804B8B"/>
<path d="M0.963369 37.816C1.09296 37.7812 1.64878 37.7672 1.69629 37.9131C1.65094 38.4767 1.78701 39.1918 1.70709 39.7364C1.69629 39.8125 1.68189 39.8772 1.58902 39.9019C1.45942 39.9368 0.903612 39.9507 0.856095 39.8049C0.901453 39.2413 0.765379 38.5261 0.845295 37.9815C0.856095 37.9054 0.870494 37.8408 0.963369 37.816Z" fill="#804B8B"/>
<path d="M17.9805 37.816C18.1101 37.7812 18.6659 37.7672 18.7134 37.9131C18.668 38.4767 18.8041 39.1918 18.7242 39.7364C18.7134 39.8125 18.699 39.8772 18.6061 39.9019C18.4765 39.9368 17.9207 39.9507 17.8732 39.8049C17.9185 39.2413 17.7825 38.5261 17.8624 37.9815C17.8732 37.9054 17.8876 37.8408 17.9805 37.816Z" fill="#804B8B"/>
<path d="M22.6444 37.8079H23.3298L23.3946 37.8662V39.8519L23.3298 39.9102H22.6444L22.5803 39.8519V37.8662L22.6444 37.8079Z" fill="#804B8B"/>
<path d="M34.4322 36.6013H35.1608L35.2249 36.6596V38.4894L35.1608 38.5477H34.4322L34.3674 38.4894V36.6596L34.4322 36.6013Z" fill="#804B8B"/>
<path d="M36.7469 36.6013H37.4755L37.5396 36.6596V38.4894L37.4755 38.5477H36.7469L36.6821 38.4894V36.6596L36.7469 36.6013Z" fill="#804B8B"/>
</g>
<defs>
<clipPath id="clip0_14_64">
<rect width="47" height="41" fill="white"/>
</clipPath>
</defs>
</svg>
